<svg width="441" height="428" viewBox="0 0 441 428" fill="none" xmlns="http://www.w3.org/2000/svg">
	<path d="M210.443 190.174L250.383 427.764H260.965L236.045 190.174H210.443Z" fill="url(#paint0_radial)" />
	<path d="M394.438 286.097L409.8 427.764H400.583L377.37 286.097H394.438Z" fill="url(#paint1_radial)" />
	<path d="M273.255 286.097L257.894 427.764H267.11L290.323 286.097H273.255Z" fill="url(#paint2_radial)" />
	<rect x="281.789" y="287.804" width="125.622" height="24.5783" fill="url(#paint3_radial)" />
	<path d="M305.002 290.535H403.239L406.046 297.362H309.212L305.002 290.535Z" fill="#CF432A" />
	<path d="M296.468 286.097L281.106 427.764H290.323L313.536 286.097H296.468Z" fill="url(#paint4_radial)" />
	<path d="M312.886 290.194H296.023L295.246 297.362H311.688L312.886 290.194Z" fill="#E95531" />
	<path d="M417.653 286.097L433.014 427.764H423.797L401.312 290.535L368.838 292.583C326.774 293.834 304.876 292.799 270.524 286.097V273.808C306.811 279.971 329.459 281.344 372.593 281.318C388.218 279.434 394.75 276.947 402.291 269.712C413.079 233.93 419.74 213.902 432.331 178.226C439.928 180.008 440.944 182.545 440.524 188.125L417.653 277.222V286.097Z" fill="url(#paint5_radial)" />
	<path d="M214.539 213.387H238.435L239.117 220.214H215.563L214.539 213.387Z" fill="#D04328" />
	<path d="M60.9254 190.174L20.9856 427.764H10.4033L35.323 190.174H60.9254Z" fill="url(#paint6_radial)" />
	<rect x="46.5889" y="190.174" width="214.377" height="23.2128" fill="url(#paint7_radial)" />
	<path d="M81.748 190.174H243.043L247.651 197.001H88.6607L81.748 190.174Z" fill="#CF432A" />
	<path d="M35.3232 180.616H292.03L289.64 190.174H41.1264L35.3232 180.616Z" fill="#F79B50" />
	<path d="M292.03 180.616H35.3232L36.518 184.029H291.176L292.03 180.616Z" fill="#FCB07E" />
	<path d="M8.0127 180.616L10.4023 190.174H43.2586L41.4665 180.616H8.0127Z" fill="#F6623E" />
	<path d="M240.485 190.174L280.425 427.764H291.007L266.087 190.174H240.485Z" fill="url(#paint8_radial)" />
	<path d="M240.484 190.174H266.087L266.769 197.001H241.631L240.484 190.174Z" fill="#E95531" />
	<path d="M90.9644 190.174L51.0247 427.764H40.4424L65.362 190.174H90.9644Z" fill="url(#paint9_radial)" />
	<path d="M90.9648 190.174H65.3625L64.6797 197.001H89.818L90.9648 190.174Z" fill="#E95531" />
	<path d="M126.807 95.2751L161.967 180.616H280.08L281.104 176.861H193.714L160.602 95.9578C159.378 94.3189 158.747 93.5737 156.505 92.5442H129.196C127.745 93.1555 127.159 93.7336 126.807 95.2751Z" fill="url(#paint10_radial)" />
	<path d="M157.869 96.9814L192.006 180.616H280.078L281.102 176.861H193.713L160.6 95.9574C159.373 94.2503 158.554 93.4884 156.504 92.5437H152.749C155.567 93.6257 156.623 94.6196 157.869 96.9814Z" fill="#AFB9C5" />
	<ellipse cx="157.31" cy="136.361" rx="4.65011" ry="9.05562" transform="rotate(-24.3792 157.31 136.361)" fill="white" />
	<path d="M87.2103 180.616H74.9212L67.9718 150.291C67.6848 149.039 68.6364 147.844 69.9213 147.844H92.2102C93.4951 147.844 94.4466 149.039 94.1596 150.291L87.2103 180.616Z" fill="url(#paint11_radial)" />
	<path d="M69.4593 156.72L67.9765 150.294C67.6872 149.041 68.6391 147.844 69.9252 147.844H92.2062C93.4924 147.844 94.4442 149.041 94.155 150.294L92.6721 156.72H69.4593Z" fill="url(#paint12_radial)" />
	<path d="M82.0888 128.387C74.7153 135.487 76.9683 141.586 79.0165 143.748C79.0165 127.704 88.9165 134.873 90.2819 125.315C91.3743 117.668 85.275 114.619 82.0888 114.05C85.161 115.87 89.4622 121.287 82.0888 128.387Z" fill="#F1EEEE" />
	<path d="M169.197 119.759C307.449 96.5466 242.249 -65.2605 144.96 34.7594C144.96 34.7594 128.233 50.4623 92.3896 86.9883C56.5467 123.514 -31.5259 106.446 15.241 35.4422" stroke="#FCB07E" stroke-width="3" />
	<rect x="229.899" y="53.7666" width="27.9393" height="26.6323" rx="5" transform="rotate(-18.343 229.899 53.7666)" fill="#4449BF" />
	<rect x="231.591" y="51.2188" width="27.0546" height="26.6323" rx="5" transform="rotate(-18.343 231.591 51.2188)" fill="url(#paint13_radial)" />
	<path d="M243.211 55.335L241.163 62.1623L246.966 66.6" stroke="white" stroke-width="4" stroke-linecap="round" stroke-linejoin="round" />
	<path d="M254.135 64.2107L256.184 57.3834L250.38 52.9456" stroke="white" stroke-width="4" stroke-linecap="round" stroke-linejoin="round" />
	<path d="M164.691 25.4582C165.516 22.6441 163.777 19.6017 160.935 18.885L141.763 14.0497C139.186 13.3998 136.655 14.9193 136.009 17.5044L130.968 37.6762C130.277 40.4405 131.999 43.3416 134.752 44.0507L153.091 48.7748C155.6 49.4213 158.089 48.0064 158.817 45.5189L164.691 25.4582Z" fill="#D14127" />
	<path d="M163.344 23.318C164.162 20.5381 162.478 17.5229 159.68 16.7611L140.767 11.6114C138.183 10.9079 135.61 12.401 134.935 14.9954L129.646 35.3175C128.93 38.0677 130.617 40.9795 133.356 41.7227L151.629 46.6801C154.153 47.3647 156.676 45.9548 157.415 43.4479L163.344 23.318Z" fill="url(#paint14_radial)" />
	<rect x="139.391" y="14.7576" width="14.2258" height="4.3012" rx="1.5" transform="rotate(16.1096 139.391 14.7576)" fill="white" />
	<rect x="142.661" y="22.2156" width="14.4126" height="4.3012" rx="1.5" transform="rotate(16.1096 142.661 22.2156)" fill="white" />
	<rect x="140.886" y="28.2791" width="16.1702" height="4.38191" rx="1.5" transform="rotate(16.1096 140.886 28.2791)" fill="white" />
	<rect x="134.024" y="33.073" width="14.6479" height="4.23593" rx="1.5" transform="rotate(16.1096 134.024 33.073)" fill="white" />
	<path d="M31.851 91.2283C32.7884 88.4878 31.2466 85.4057 28.4948 84.5194L14.6965 80.0749C12.2473 79.286 9.69452 80.5293 8.8035 82.9449L3.06777 98.495C2.07234 101.194 3.52181 104.294 6.23276 105.264L20.2517 110.283C22.7795 111.188 25.4669 109.893 26.336 107.352L31.851 91.2283Z" fill="#BD4283" />
	<path d="M31.0507 89.6684C32.0504 86.9488 30.569 83.8298 27.8287 82.8849L13.7874 78.0434C11.2578 77.1712 8.59292 78.4886 7.74576 81.0301L2.32234 97.3005C1.42306 99.9984 2.91324 103.019 5.5992 103.942L19.1503 108.6C21.6233 109.45 24.2351 108.209 25.1371 105.755L31.0507 89.6684Z" fill="url(#paint15_radial)" />
	<path d="M23.3031 96.8028C23.926 95.1746 23.0523 93.2865 21.4065 92.704L13.2245 89.8086C11.7049 89.2708 10.0943 90.0553 9.57958 91.584L7.63848 97.3491C7.09608 98.96 7.97647 100.769 9.5782 101.334L17.5294 104.142C19.0044 104.662 20.5731 103.939 21.1312 102.48L23.3031 96.8028Z" fill="white" />
	<path d="M25.4861 90.744C25.9842 89.8446 25.5417 88.6654 24.5695 88.3018L14.0376 84.3622C13.2175 84.0554 12.3344 84.4569 12.0286 85.2755C11.6997 86.1562 12.1641 87.172 13.0463 87.5018L23.5789 91.4393C24.3124 91.7135 25.1103 91.4226 25.4861 90.744Z" fill="white" />
	<path d="M17.2828 97.9392C17.7472 96.679 17.0615 95.2326 15.7915 94.7938C14.6188 94.3886 13.3829 94.9989 12.9899 96.1772L12.8706 96.5348C12.4547 97.7816 13.1428 99.1776 14.384 99.6052C15.5269 99.9989 16.7348 99.4262 17.1526 98.2923L17.2828 97.9392Z" fill="#E85B9F" />
	<defs>
		<radialGradient id="paint0_radial" cx="0" cy="0" r="1" gradientUnits="userSpaceOnUse" gradientTransform="translate(260.623 427.764) rotate(-96.069) scale(238.929 50.8068)">
			<stop stop-color="#D74828" />
			<stop offset="1" stop-color="#F05C34" />
		</radialGradient>
		<radialGradient id="paint1_radial" cx="0" cy="0" r="1" gradientUnits="userSpaceOnUse" gradientTransform="translate(377.589 427.764) rotate(-83.4705) scale(142.591 32.5835)">
			<stop stop-color="#D74828" />
			<stop offset="1" stop-color="#F05C34" />
		</radialGradient>
		<radialGradient id="paint2_radial" cx="0" cy="0" r="1" gradientUnits="userSpaceOnUse" gradientTransform="translate(290.104 427.764) rotate(-96.5295) scale(142.591 32.5835)">
			<stop stop-color="#D74828" />
			<stop offset="1" stop-color="#F05C34" />
		</radialGradient>
		<radialGradient id="paint3_radial" cx="0" cy="0" r="1" gradientUnits="userSpaceOnUse" gradientTransform="translate(281.989 312.382) rotate(-11.0702) scale(128.004 2081.41)">
			<stop stop-color="#CD4028" />
			<stop offset="0.801577" stop-color="#F05E39" />
		</radialGradient>
		<radialGradient id="paint4_radial" cx="0" cy="0" r="1" gradientUnits="userSpaceOnUse" gradientTransform="translate(297.102 286.097) rotate(86.7246) scale(141.898 32.4682)">
			<stop stop-color="#F3974C" />
			<stop offset="1" stop-color="#FEB453" />
		</radialGradient>
		<radialGradient id="paint5_radial" cx="0" cy="0" r="1" gradientUnits="userSpaceOnUse" gradientTransform="translate(356.714 178.226) rotate(99.67) scale(253.135 168.137)">
			<stop stop-color="#F89D54" />
			<stop offset="1" stop-color="#F3954B" />
		</radialGradient>
		<radialGradient id="paint6_radial" cx="0" cy="0" r="1" gradientUnits="userSpaceOnUse" gradientTransform="translate(10.7447 427.764) rotate(-83.931) scale(238.929 50.8068)">
			<stop stop-color="#D74828" />
			<stop offset="1" stop-color="#F05C34" />
		</radialGradient>
		<radialGradient id="paint7_radial" cx="0" cy="0" r="1" gradientUnits="userSpaceOnUse" gradientTransform="translate(46.9302 213.387) rotate(-6.17992) scale(215.63 1991.41)">
			<stop stop-color="#CD4028" />
			<stop offset="0.801577" stop-color="#F05E39" />
		</radialGradient>
		<radialGradient id="paint8_radial" cx="0" cy="0" r="1" gradientUnits="userSpaceOnUse" gradientTransform="translate(265.404 190.174) rotate(86.957) scale(237.926 50.5934)">
			<stop stop-color="#ED5C37" />
			<stop offset="1" stop-color="#F49647" />
		</radialGradient>
		<radialGradient id="paint9_radial" cx="0" cy="0" r="1" gradientUnits="userSpaceOnUse" gradientTransform="translate(66.0448 190.174) rotate(93.043) scale(237.926 50.5934)">
			<stop stop-color="#ED5C37" />
			<stop offset="1" stop-color="#F49647" />
		</radialGradient>
		<radialGradient id="paint10_radial" cx="0" cy="0" r="1" gradientUnits="userSpaceOnUse" gradientTransform="translate(126.807 92.5442) rotate(29.7176) scale(177.663 311.255)">
			<stop stop-color="#F7FBFE" />
			<stop offset="1" stop-color="#AEBECD" />
		</radialGradient>
		<radialGradient id="paint11_radial" cx="0" cy="0" r="1" gradientUnits="userSpaceOnUse" gradientTransform="translate(70.4834 147.844) rotate(62.9595) scale(36.7931 30.6609)">
			<stop stop-color="white" />
			<stop offset="1" stop-color="#E9E9E9" />
		</radialGradient>
		<radialGradient id="paint12_radial" cx="0" cy="0" r="1" gradientUnits="userSpaceOnUse" gradientTransform="translate(67.4111 147.844) rotate(18.0042) scale(28.7153 88.3547)">
			<stop stop-color="#CCD4DE" />
			<stop offset="1" stop-color="#AFB9C5" />
		</radialGradient>
		<radialGradient id="paint13_radial" cx="0" cy="0" r="1" gradientUnits="userSpaceOnUse" gradientTransform="translate(251.724 79.4931) rotate(-109.977) scale(26.9765 27.4043)">
			<stop stop-color="#826AF4" />
			<stop offset="1" stop-color="#AC9FF1" />
		</radialGradient>
		<radialGradient id="paint14_radial" cx="0" cy="0" r="1" gradientUnits="userSpaceOnUse" gradientTransform="translate(142.508 44.1151) rotate(-75.1916) scale(30.7191 30.4767)">
			<stop offset="0.416667" stop-color="#EC9045" />
			<stop offset="1" stop-color="#F7C7A0" />
		</radialGradient>
		<radialGradient id="paint15_radial" cx="0" cy="0" r="1" gradientUnits="userSpaceOnUse" gradientTransform="translate(17.1052 77.945) rotate(80.112) scale(37.7698 34.0769)">
			<stop offset="0.134013" stop-color="#E593C1" />
			<stop offset="0.69354" stop-color="#E75A9E" />
		</radialGradient>
	</defs>
</svg>
