<svg width="17" height="13" viewBox="0 0 17 13" fill="none" xmlns="http://www.w3.org/2000/svg">
	<path d="M16.7686 5.89286L11.5393 0.249511C11.39 0.0884215 11.1911 0 10.979 0C10.7666 0 10.5677 0.0885486 10.4185 0.249511L9.94368 0.762001C9.79452 0.922836 9.71235 1.13767 9.71235 1.36672C9.71235 1.59565 9.79452 1.81772 9.94368 1.97856L12.9944 5.27798H0.782281C0.345287 5.27798 0 5.64716 0 6.11887V6.8434C0 7.3151 0.345287 7.72151 0.782281 7.72151H13.029L9.9438 11.0394C9.79464 11.2004 9.71247 11.4094 9.71247 11.6385C9.71247 11.8673 9.79464 12.0793 9.9438 12.2403L10.4186 12.7511C10.5679 12.9122 10.7667 13 10.9791 13C11.1912 13 11.3902 12.9111 11.5394 12.75L16.7687 7.10675C16.9183 6.94516 17.0006 6.72944 17 6.50013C17.0005 6.27005 16.9183 6.05421 16.7686 5.89286Z" fill="#465AF2" />
</svg>
