<svg width="45" height="36" viewBox="0 0 45 36" fill="none" xmlns="http://www.w3.org/2000/svg">
	<path d="M3.53481e-07 13.8462H8.08669V36H2.31048C1.03444 36 3.53481e-07 34.9668 3.53481e-07 33.6923V13.8462Z" fill="#465AF2" />
	<path d="M11.0903 1.84597e-06H19.177V36H11.0903V1.84597e-06Z" fill="#465AF2" />
	<path d="M42.2819 1.74509e-06C43.5579 1.8008e-06 44.5923 1.03319 44.5923 2.30769V8.07693L0 8.07692L2.52486e-07 2.30769C3.08264e-07 1.03319 1.03444 -5.57103e-08 2.31048 0L42.2819 1.74509e-06Z" fill="#465AF2" />
	<path d="M44.5923 27.9231V33.6923C44.5923 34.9668 43.5579 36 42.2819 36L22.1806 36V27.9231L44.5923 27.9231Z" fill="#465AF2" />
	<path d="M44.5923 13.8462V21.9231L22.1806 21.9231V13.8462L44.5923 13.8462Z" fill="#465AF2" />
</svg>
