<svg width="128" height="36" viewBox="0 0 128 36" fill="none" xmlns="http://www.w3.org/2000/svg">
	<path d="M3.53481e-07 13.8462H8.08669V36H2.31048C1.03444 36 3.53481e-07 34.9668 3.53481e-07 33.6923V13.8462Z" fill="#3D3D3D" />
	<path d="M11.0903 1.84597e-06H19.177V36H11.0903V1.84597e-06Z" fill="#3D3D3D" />
	<path d="M42.2819 1.74509e-06C43.5579 1.8008e-06 44.5923 1.03319 44.5923 2.30769V8.07693L0 8.07692L2.52486e-07 2.30769C3.08264e-07 1.03319 1.03444 -5.57102e-08 2.31048 0L42.2819 1.74509e-06Z" fill="#3D3D3D" />
	<path d="M44.5923 27.9231V33.6923C44.5923 34.9668 43.5579 36 42.2819 36L22.1806 36V27.9231L44.5923 27.9231Z" fill="#3D3D3D" />
	<path d="M44.5923 13.8462V21.9231L22.1806 21.9231V13.8462L44.5923 13.8462Z" fill="#3D3D3D" />
	<path d="M55.2552 10.8462H57.1267V18.9231H55.2552V10.8462Z" fill="#3D3D3D" />
	<path d="M60.721 12.3692H58.1332V10.8462H65.1802V12.3692H62.5925V18.9231H60.721V12.3692Z" fill="#3D3D3D" />
	<path d="M61.5166 31.5V33H55.2552V24.9231H61.3665V26.4231H57.1152V28.1769H60.8697V29.6308H57.1152V31.5H61.5166Z" fill="#3D3D3D" />
	<path d="M66.6563 26.7C67.4265 26.7 68.0464 26.9308 68.5162 27.3923C68.9937 27.8538 69.2325 28.5385 69.2325 29.4461V33H67.4303V29.7231C67.4303 29.2308 67.3225 28.8654 67.1068 28.6269C66.8912 28.3808 66.5793 28.2577 66.1711 28.2577C65.7167 28.2577 65.3547 28.4 65.0852 28.6846C64.8156 28.9615 64.6808 29.3769 64.6808 29.9308V33H62.8787V26.7923H64.6V27.5192C64.8387 27.2577 65.1352 27.0577 65.4895 26.9192C65.8438 26.7731 66.2327 26.7 66.6563 26.7Z" fill="#3D3D3D" />
	<path d="M77.3454 26.7923V31.9615C77.3454 33.1 77.0488 33.9461 76.4558 34.5C75.8628 35.0538 74.9964 35.3308 73.8565 35.3308C73.2558 35.3308 72.6859 35.2577 72.1468 35.1115C71.6077 34.9654 71.1609 34.7538 70.8067 34.4769L71.5229 33.1846C71.7848 33.4 72.116 33.5692 72.5164 33.6923C72.9169 33.8231 73.3174 33.8885 73.7179 33.8885C74.3417 33.8885 74.8 33.7462 75.0926 33.4615C75.393 33.1846 75.5432 32.7615 75.5432 32.1923V31.9269C75.0734 32.4423 74.4187 32.7 73.5793 32.7C73.0093 32.7 72.4856 32.5769 72.0081 32.3308C71.5383 32.0769 71.1648 31.7231 70.8875 31.2692C70.6103 30.8154 70.4717 30.2923 70.4717 29.7C70.4717 29.1077 70.6103 28.5846 70.8875 28.1308C71.1648 27.6769 71.5383 27.3269 72.0081 27.0808C72.4856 26.8269 73.0093 26.7 73.5793 26.7C74.4803 26.7 75.1658 26.9961 75.6356 27.5885V26.7923H77.3454ZM73.9374 31.2231C74.4149 31.2231 74.8038 31.0846 75.1042 30.8077C75.4122 30.5231 75.5663 30.1538 75.5663 29.7C75.5663 29.2461 75.4122 28.8808 75.1042 28.6038C74.8038 28.3192 74.4149 28.1769 73.9374 28.1769C73.4599 28.1769 73.0671 28.3192 72.759 28.6038C72.451 28.8808 72.2969 29.2461 72.2969 29.7C72.2969 30.1538 72.451 30.5231 72.759 30.8077C73.0671 31.0846 73.4599 31.2231 73.9374 31.2231Z" fill="#3D3D3D" />
	<path d="M79.0227 26.7923H80.8249V33H79.0227V26.7923ZM79.9238 25.9269C79.5926 25.9269 79.3231 25.8308 79.1151 25.6385C78.9072 25.4461 78.8032 25.2077 78.8032 24.9231C78.8032 24.6385 78.9072 24.4 79.1151 24.2077C79.3231 24.0154 79.5926 23.9192 79.9238 23.9192C80.255 23.9192 80.5245 24.0115 80.7325 24.1961C80.9404 24.3808 81.0444 24.6115 81.0444 24.8885C81.0444 25.1885 80.9404 25.4385 80.7325 25.6385C80.5245 25.8308 80.255 25.9269 79.9238 25.9269Z" fill="#3D3D3D" />
	<path d="M86.2751 26.7C87.0453 26.7 87.6652 26.9308 88.135 27.3923C88.6125 27.8538 88.8513 28.5385 88.8513 29.4461V33H87.0491V29.7231C87.0491 29.2308 86.9413 28.8654 86.7256 28.6269C86.51 28.3808 86.1981 28.2577 85.7899 28.2577C85.3355 28.2577 84.9735 28.4 84.704 28.6846C84.4344 28.9615 84.2996 29.3769 84.2996 29.9308V33H82.4975V26.7923H84.2188V27.5192C84.4575 27.2577 84.754 27.0577 85.1083 26.9192C85.4626 26.7731 85.8515 26.7 86.2751 26.7Z" fill="#3D3D3D" />
	<path d="M96.6407 29.9192C96.6407 29.9423 96.6291 30.1038 96.606 30.4038H91.9042C91.9889 30.7885 92.1892 31.0923 92.5049 31.3154C92.8207 31.5385 93.2135 31.65 93.6833 31.65C94.0067 31.65 94.2917 31.6038 94.5381 31.5115C94.7923 31.4115 95.0272 31.2577 95.2428 31.05L96.2017 32.0885C95.6164 32.7577 94.7615 33.0923 93.6371 33.0923C92.9362 33.0923 92.3162 32.9577 91.7771 32.6885C91.238 32.4115 90.8221 32.0308 90.5295 31.5461C90.2368 31.0615 90.0905 30.5115 90.0905 29.8962C90.0905 29.2885 90.2329 28.7423 90.5179 28.2577C90.8106 27.7654 91.2072 27.3846 91.7078 27.1154C92.2161 26.8385 92.7822 26.7 93.406 26.7C94.0144 26.7 94.5651 26.8308 95.058 27.0923C95.5509 27.3538 95.936 27.7308 96.2132 28.2231C96.4982 28.7077 96.6407 29.2731 96.6407 29.9192ZM93.4176 28.0615C93.0094 28.0615 92.6667 28.1769 92.3894 28.4077C92.1121 28.6385 91.9427 28.9538 91.8811 29.3538H94.9425C94.8809 28.9615 94.7114 28.65 94.4342 28.4192C94.1569 28.1808 93.818 28.0615 93.4176 28.0615Z" fill="#3D3D3D" />
	<path d="M103.929 29.9192C103.929 29.9423 103.917 30.1038 103.894 30.4038H99.1922C99.2769 30.7885 99.4771 31.0923 99.7929 31.3154C100.109 31.5385 100.501 31.65 100.971 31.65C101.295 31.65 101.58 31.6038 101.826 31.5115C102.08 31.4115 102.315 31.2577 102.531 31.05L103.49 32.0885C102.904 32.7577 102.049 33.0923 100.925 33.0923C100.224 33.0923 99.6042 32.9577 99.0651 32.6885C98.526 32.4115 98.1101 32.0308 97.8174 31.5461C97.5247 31.0615 97.3784 30.5115 97.3784 29.8962C97.3784 29.2885 97.5209 28.7423 97.8059 28.2577C98.0985 27.7654 98.4952 27.3846 98.9958 27.1154C99.5041 26.8385 100.07 26.7 100.694 26.7C101.302 26.7 101.853 26.8308 102.346 27.0923C102.839 27.3538 103.224 27.7308 103.501 28.2231C103.786 28.7077 103.929 29.2731 103.929 29.9192ZM100.706 28.0615C100.297 28.0615 99.9546 28.1769 99.6773 28.4077C99.4001 28.6385 99.2307 28.9538 99.169 29.3538H102.23C102.169 28.9615 101.999 28.65 101.722 28.4192C101.445 28.1808 101.106 28.0615 100.706 28.0615Z" fill="#3D3D3D" />
	<path d="M106.85 27.6115C107.065 27.3115 107.354 27.0846 107.716 26.9308C108.086 26.7769 108.509 26.7 108.987 26.7V28.3615C108.787 28.3462 108.652 28.3385 108.583 28.3385C108.067 28.3385 107.662 28.4846 107.37 28.7769C107.077 29.0615 106.931 29.4923 106.931 30.0692V33H105.128V26.7923H106.85V27.6115Z" fill="#3D3D3D" />
	<path d="M110.059 26.7923H111.861V33H110.059V26.7923ZM110.96 25.9269C110.628 25.9269 110.359 25.8308 110.151 25.6385C109.943 25.4461 109.839 25.2077 109.839 24.9231C109.839 24.6385 109.943 24.4 110.151 24.2077C110.359 24.0154 110.628 23.9192 110.96 23.9192C111.291 23.9192 111.56 24.0115 111.768 24.1961C111.976 24.3808 112.08 24.6115 112.08 24.8885C112.08 25.1885 111.976 25.4385 111.768 25.6385C111.56 25.8308 111.291 25.9269 110.96 25.9269Z" fill="#3D3D3D" />
	<path d="M117.311 26.7C118.081 26.7 118.701 26.9308 119.171 27.3923C119.648 27.8538 119.887 28.5385 119.887 29.4461V33H118.085V29.7231C118.085 29.2308 117.977 28.8654 117.761 28.6269C117.546 28.3808 117.234 28.2577 116.826 28.2577C116.371 28.2577 116.009 28.4 115.74 28.6846C115.47 28.9615 115.335 29.3769 115.335 29.9308V33H113.533V26.7923H115.255V27.5192C115.493 27.2577 115.79 27.0577 116.144 26.9192C116.498 26.7731 116.887 26.7 117.311 26.7Z" fill="#3D3D3D" />
	<path d="M128 26.7923V31.9615C128 33.1 127.703 33.9461 127.11 34.5C126.517 35.0538 125.651 35.3308 124.511 35.3308C123.91 35.3308 123.341 35.2577 122.801 35.1115C122.262 34.9654 121.816 34.7538 121.461 34.4769L122.178 33.1846C122.439 33.4 122.771 33.5692 123.171 33.6923C123.572 33.8231 123.972 33.8885 124.373 33.8885C124.996 33.8885 125.455 33.7462 125.747 33.4615C126.048 33.1846 126.198 32.7615 126.198 32.1923V31.9269C125.728 32.4423 125.073 32.7 124.234 32.7C123.664 32.7 123.14 32.5769 122.663 32.3308C122.193 32.0769 121.819 31.7231 121.542 31.2692C121.265 30.8154 121.126 30.2923 121.126 29.7C121.126 29.1077 121.265 28.5846 121.542 28.1308C121.819 27.6769 122.193 27.3269 122.663 27.0808C123.14 26.8269 123.664 26.7 124.234 26.7C125.135 26.7 125.82 26.9961 126.29 27.5885V26.7923H128ZM124.592 31.2231C125.07 31.2231 125.458 31.0846 125.759 30.8077C126.067 30.5231 126.221 30.1538 126.221 29.7C126.221 29.2461 126.067 28.8808 125.759 28.6038C125.458 28.3192 125.07 28.1769 124.592 28.1769C124.115 28.1769 123.722 28.3192 123.414 28.6038C123.106 28.8808 122.952 29.2461 122.952 29.7C122.952 30.1538 123.106 30.5231 123.414 30.8077C123.722 31.0846 124.115 31.2231 124.592 31.2231Z" fill="#3D3D3D" />
</svg>
