<svg width="128" height="36" viewBox="0 0 128 36" fill="none" xmlns="http://www.w3.org/2000/svg">
	<path d="M3.53054e-07 13.8461H8.07692V36H2.30769C1.03319 36 3.53054e-07 34.9668 3.53054e-07 33.6923V13.8461Z" fill="white" />
	<path d="M11.0769 1.84597e-06H19.1538V36H11.0769V1.84597e-06Z" fill="white" />
	<path d="M42.2308 1.74509e-06C43.5053 1.8008e-06 44.5384 1.03319 44.5384 2.30769V8.07692L0 8.07692L2.52181e-07 2.30769C3.07891e-07 1.03319 1.03319 -5.57102e-08 2.30769 0L42.2308 1.74509e-06Z" fill="white" />
	<path d="M44.5384 27.9231V33.6923C44.5384 34.9668 43.5053 36 42.2308 36L22.1538 36V27.9231H44.5384Z" fill="white" />
	<path d="M44.5384 13.8462V21.9231L22.1538 21.9231V13.8461L44.5384 13.8462Z" fill="white" />
	<path d="M55.1884 10.8461H57.0577V18.9231H55.1884V10.8461Z" fill="white" />
	<path d="M60.6476 12.3692H58.063V10.8461H65.1014V12.3692H62.5168V18.9231H60.6476V12.3692Z" fill="white" />
	<path d="M61.4423 31.5V33H55.1884V24.9231H61.2923V26.4231H57.0461V28.1769H60.7961V29.6308H57.0461V31.5H61.4423Z" fill="white" />
	<path d="M66.5757 26.7C67.345 26.7 67.9642 26.9308 68.4334 27.3923C68.9103 27.8538 69.1488 28.5385 69.1488 29.4461V33H67.3488V29.7231C67.3488 29.2308 67.2411 28.8654 67.0257 28.6269C66.8103 28.3808 66.4988 28.2577 66.0911 28.2577C65.6373 28.2577 65.2757 28.4 65.0065 28.6846C64.7373 28.9615 64.6027 29.3769 64.6027 29.9308V33H62.8027V26.7923H64.5219V27.5192C64.7603 27.2577 65.0565 27.0577 65.4103 26.9192C65.7642 26.7731 66.1527 26.7 66.5757 26.7Z" fill="white" />
	<path d="M77.2519 26.7923V31.9615C77.2519 33.1 76.9557 33.9461 76.3634 34.5C75.7711 35.0538 74.9057 35.3308 73.7673 35.3308C73.1673 35.3308 72.598 35.2577 72.0596 35.1115C71.5211 34.9654 71.0749 34.7538 70.7211 34.4769L71.4365 33.1846C71.698 33.4 72.0288 33.5692 72.4288 33.6923C72.8288 33.8231 73.2288 33.8885 73.6288 33.8885C74.2519 33.8885 74.7096 33.7461 75.0019 33.4615C75.3019 33.1846 75.4519 32.7615 75.4519 32.1923V31.9269C74.9826 32.4423 74.3288 32.7 73.4903 32.7C72.9211 32.7 72.398 32.5769 71.9211 32.3308C71.4519 32.0769 71.0788 31.7231 70.8019 31.2692C70.5249 30.8154 70.3865 30.2923 70.3865 29.7C70.3865 29.1077 70.5249 28.5846 70.8019 28.1308C71.0788 27.6769 71.4519 27.3269 71.9211 27.0808C72.398 26.8269 72.9211 26.7 73.4903 26.7C74.3903 26.7 75.075 26.9961 75.5442 27.5885V26.7923H77.2519ZM73.848 31.2231C74.325 31.2231 74.7134 31.0846 75.0134 30.8077C75.3211 30.5231 75.4749 30.1538 75.4749 29.7C75.4749 29.2461 75.3211 28.8808 75.0134 28.6038C74.7134 28.3192 74.325 28.1769 73.848 28.1769C73.3711 28.1769 72.9788 28.3192 72.6711 28.6038C72.3634 28.8808 72.2096 29.2461 72.2096 29.7C72.2096 30.1538 72.3634 30.5231 72.6711 30.8077C72.9788 31.0846 73.3711 31.2231 73.848 31.2231Z" fill="white" />
	<path d="M78.9272 26.7923H80.7272V33H78.9272V26.7923ZM79.8272 25.9269C79.4964 25.9269 79.2272 25.8308 79.0195 25.6385C78.8118 25.4461 78.708 25.2077 78.708 24.9231C78.708 24.6385 78.8118 24.4 79.0195 24.2077C79.2272 24.0154 79.4964 23.9192 79.8272 23.9192C80.158 23.9192 80.4272 24.0115 80.6349 24.1961C80.8426 24.3808 80.9464 24.6115 80.9464 24.8885C80.9464 25.1885 80.8426 25.4385 80.6349 25.6385C80.4272 25.8308 80.158 25.9269 79.8272 25.9269Z" fill="white" />
	<path d="M86.1708 26.7C86.9401 26.7 87.5593 26.9308 88.0285 27.3923C88.5054 27.8538 88.7439 28.5385 88.7439 29.4461V33H86.9439V29.7231C86.9439 29.2308 86.8362 28.8654 86.6208 28.6269C86.4054 28.3808 86.0939 28.2577 85.6862 28.2577C85.2324 28.2577 84.8708 28.4 84.6016 28.6846C84.3324 28.9615 84.1977 29.3769 84.1977 29.9308V33H82.3978V26.7923H84.117V27.5192C84.3554 27.2577 84.6516 27.0577 85.0054 26.9192C85.3593 26.7731 85.7477 26.7 86.1708 26.7Z" fill="white" />
	<path d="M96.5239 29.9192C96.5239 29.9423 96.5123 30.1038 96.4893 30.4038H91.7931C91.8777 30.7885 92.0777 31.0923 92.3931 31.3154C92.7085 31.5385 93.1008 31.65 93.57 31.65C93.8931 31.65 94.1777 31.6038 94.4239 31.5115C94.6777 31.4115 94.9123 31.2577 95.1277 31.05L96.0854 32.0885C95.5008 32.7577 94.647 33.0923 93.5239 33.0923C92.8239 33.0923 92.2047 32.9577 91.6662 32.6884C91.1277 32.4115 90.7123 32.0308 90.42 31.5461C90.1277 31.0615 89.9816 30.5115 89.9816 29.8961C89.9816 29.2885 90.1239 28.7423 90.4085 28.2577C90.7008 27.7654 91.097 27.3846 91.597 27.1154C92.1047 26.8385 92.67 26.7 93.2931 26.7C93.9008 26.7 94.4508 26.8308 94.9431 27.0923C95.4354 27.3538 95.82 27.7308 96.097 28.2231C96.3816 28.7077 96.5239 29.2731 96.5239 29.9192ZM93.3047 28.0615C92.897 28.0615 92.5547 28.1769 92.2777 28.4077C92.0008 28.6385 91.8316 28.9538 91.77 29.3538H94.8277C94.7662 28.9615 94.597 28.65 94.32 28.4192C94.0431 28.1808 93.7047 28.0615 93.3047 28.0615Z" fill="white" />
	<path d="M103.803 29.9192C103.803 29.9423 103.791 30.1038 103.768 30.4038H99.0723C99.1569 30.7885 99.3569 31.0923 99.6723 31.3154C99.9876 31.5385 100.38 31.65 100.849 31.65C101.172 31.65 101.457 31.6038 101.703 31.5115C101.957 31.4115 102.191 31.2577 102.407 31.05L103.365 32.0885C102.78 32.7577 101.926 33.0923 100.803 33.0923C100.103 33.0923 99.4838 32.9577 98.9453 32.6884C98.4069 32.4115 97.9915 32.0308 97.6992 31.5461C97.4069 31.0615 97.2607 30.5115 97.2607 29.8961C97.2607 29.2885 97.403 28.7423 97.6877 28.2577C97.98 27.7654 98.3761 27.3846 98.8761 27.1154C99.3838 26.8385 99.9492 26.7 100.572 26.7C101.18 26.7 101.73 26.8308 102.222 27.0923C102.715 27.3538 103.099 27.7308 103.376 28.2231C103.661 28.7077 103.803 29.2731 103.803 29.9192ZM100.584 28.0615C100.176 28.0615 99.8338 28.1769 99.5569 28.4077C99.28 28.6385 99.1107 28.9538 99.0492 29.3538H102.107C102.045 28.9615 101.876 28.65 101.599 28.4192C101.322 28.1808 100.984 28.0615 100.584 28.0615Z" fill="white" />
	<path d="M106.721 27.6115C106.936 27.3115 107.224 27.0846 107.586 26.9308C107.955 26.7769 108.378 26.7 108.855 26.7V28.3615C108.655 28.3461 108.521 28.3385 108.451 28.3385C107.936 28.3385 107.532 28.4846 107.24 28.7769C106.948 29.0615 106.801 29.4923 106.801 30.0692V33H105.001V26.7923H106.721V27.6115Z" fill="white" />
	<path d="M109.926 26.7923H111.726V33H109.926V26.7923ZM110.826 25.9269C110.495 25.9269 110.226 25.8308 110.018 25.6385C109.81 25.4461 109.706 25.2077 109.706 24.9231C109.706 24.6385 109.81 24.4 110.018 24.2077C110.226 24.0154 110.495 23.9192 110.826 23.9192C111.156 23.9192 111.426 24.0115 111.633 24.1961C111.841 24.3808 111.945 24.6115 111.945 24.8885C111.945 25.1885 111.841 25.4385 111.633 25.6385C111.426 25.8308 111.156 25.9269 110.826 25.9269Z" fill="white" />
	<path d="M117.169 26.7C117.938 26.7 118.558 26.9308 119.027 27.3923C119.504 27.8538 119.742 28.5385 119.742 29.4461V33H117.942V29.7231C117.942 29.2308 117.835 28.8654 117.619 28.6269C117.404 28.3808 117.092 28.2577 116.685 28.2577C116.231 28.2577 115.869 28.4 115.6 28.6846C115.331 28.9615 115.196 29.3769 115.196 29.9308V33H113.396V26.7923H115.115V27.5192C115.354 27.2577 115.65 27.0577 116.004 26.9192C116.358 26.7731 116.746 26.7 117.169 26.7Z" fill="white" />
	<path d="M127.845 26.7923V31.9615C127.845 33.1 127.549 33.9461 126.957 34.5C126.365 35.0538 125.499 35.3308 124.361 35.3308C123.761 35.3308 123.191 35.2577 122.653 35.1115C122.115 34.9654 121.668 34.7538 121.315 34.4769L122.03 33.1846C122.291 33.4 122.622 33.5692 123.022 33.6923C123.422 33.8231 123.822 33.8885 124.222 33.8885C124.845 33.8885 125.303 33.7461 125.595 33.4615C125.895 33.1846 126.045 32.7615 126.045 32.1923V31.9269C125.576 32.4423 124.922 32.7 124.084 32.7C123.515 32.7 122.991 32.5769 122.515 32.3308C122.045 32.0769 121.672 31.7231 121.395 31.2692C121.118 30.8154 120.98 30.2923 120.98 29.7C120.98 29.1077 121.118 28.5846 121.395 28.1308C121.672 27.6769 122.045 27.3269 122.515 27.0808C122.991 26.8269 123.515 26.7 124.084 26.7C124.984 26.7 125.668 26.9961 126.138 27.5885V26.7923H127.845ZM124.441 31.2231C124.918 31.2231 125.307 31.0846 125.607 30.8077C125.915 30.5231 126.068 30.1538 126.068 29.7C126.068 29.2461 125.915 28.8808 125.607 28.6038C125.307 28.3192 124.918 28.1769 124.441 28.1769C123.965 28.1769 123.572 28.3192 123.265 28.6038C122.957 28.8808 122.803 29.2461 122.803 29.7C122.803 30.1538 122.957 30.5231 123.265 30.8077C123.572 31.0846 123.965 31.2231 124.441 31.2231Z" fill="white" />
</svg>
